<svg xmlns="http://www.w3.org/2000/svg" viewBox="0 0 212.42 680"><g id="Layer_2" data-name="Layer 2"><g id="Layer_1-2" data-name="Layer 1"><path d="M162.42,40a18.71,18.71,0,0,1,10,2.6V308.8q-26.85,84.57-53.7,169.13a40,40,0,0,0,3.17,31.55,20,20,0,0,1,1.61,15.75L91.84,626a19.94,19.94,0,0,1-25.06,13.09l-12.76-4A20,20,0,0,1,40.94,610L72.59,509.23a19.87,19.87,0,0,1,10.57-12.11,40,40,0,0,0,21-24.07l23.17-73,23.16-73a39.72,39.72,0,0,0,1.88-12.1V42.6a18.68,18.68,0,0,1,10-2.6m0-40c-27.43,0-50,17.77-50,39.38V315Q89.26,388,66.09,461a59.87,59.87,0,0,0-31.66,36.29L2.78,598A60,60,0,0,0,42,673.22l12.75,4A59.95,59.95,0,0,0,130,638l31.66-100.75A59.86,59.86,0,0,0,156.85,490q27.79-87.53,55.57-175V39.38c0-21.61-22.57-39.38-50-39.38Z"/></g></g></svg>