<svg xmlns="http://www.w3.org/2000/svg" viewBox="0 0 213 840.72"><g id="Layer_2" data-name="Layer 2"><g id="Layer_1-2" data-name="Layer 1"><path d="M163,40a10.26,10.26,0,0,1,10,10V395.08L147.67,496.41q-17.7,70.76-35.38,141.5l-4,16.1,8.55,14.21A19.91,19.91,0,0,1,119,683.6L92.28,785.77a19.93,19.93,0,0,1-24.42,14.28L55,796.68a20,20,0,0,1-14.29-24.42L67.42,670.09a19.9,19.9,0,0,1,9.51-12.36l15-8.45,4.18-16.68Q124,521.15,151.81,409.7l1.19-4.78V50a10.26,10.26,0,0,1,10-10m0-40a50.24,50.24,0,0,0-50,50V400Q85.15,511.45,57.27,622.9A59.83,59.83,0,0,0,28.72,660L2,762.13a60,60,0,0,0,42.85,73.24l12.92,3.38A59.94,59.94,0,0,0,131,795.9l26.75-102.17a59.83,59.83,0,0,0-6.63-46.12Q182,523.8,213,400V50A50.24,50.24,0,0,0,163,0Z"/></g></g></svg>