<svg id="Layer_1" data-name="Layer 1" xmlns="http://www.w3.org/2000/svg" viewBox="0 0 325.08 325.12"><path d="M410.35,97.48a20.33,20.33,0,0,1,8.19,16.31V327.13c0,28.07-27.3,50.8-61,50.8s-60.95-22.73-60.95-50.8,27.3-50.79,60.95-50.79a70.64,70.64,0,0,1,20.32,2.92V186.81L215.37,235.57v132.2c0,28.06-27.31,50.79-61,50.79s-60.95-22.73-60.95-50.79,27.3-50.8,61-50.8a71,71,0,0,1,20.32,2.92V174.75a20.42,20.42,0,0,1,14.48-19.49l203.18-61a20.18,20.18,0,0,1,18,3.18Z" transform="translate(-93.46 -93.44)"/></svg>