<?xml version="1.0" encoding="utf-8"?>
<!-- Generator: Adobe Illustrator 26.0.1, SVG Export Plug-In . SVG Version: 6.00 Build 0)  -->
<svg version="1.1" id="Layer_1" xmlns="http://www.w3.org/2000/svg" xmlns:xlink="http://www.w3.org/1999/xlink" x="0px" y="0px"
	 viewBox="0 0 512 512" style="enable-background:new 0 0 512 512;" xml:space="preserve">
<path d="M410.4,97.5c5.1,3.8,8.2,9.9,8.2,16.3v45.7v167.6c0,28.1-27.3,50.8-61,50.8s-61-22.7-61-50.8s27.3-50.8,61-50.8
	c7.1,0,14,1,20.3,2.9v-92.4l-162.5,48.8v132.2c0,28.1-27.3,50.8-61,50.8s-61-22.7-61-50.8s27.3-50.8,61-50.8c7.1,0,14,1,20.3,2.9
	v-99.4v-45.7c0-9,5.9-16.9,14.5-19.5l203.2-61C398.5,92.5,405.2,93.6,410.4,97.5L410.4,97.5z"/>
</svg>
