<svg xmlns="http://www.w3.org/2000/svg" viewBox="0 0 691.54 691.54"><defs><style>.cls-1{font-size:124.82px;font-family:MyriadPro-Regular, Myriad Pro;}.cls-2{fill:none;stroke:#000;stroke-miterlimit:10;}</style></defs><g id="Layer_2" data-name="Layer 2"><g id="Layer_1-2" data-name="Layer 1"><text class="cls-1" transform="translate(457.42 143.99) rotate(38.53)">A</text><text class="cls-1" transform="translate(512.95 188.05) rotate(55.02)">R</text><text class="cls-1" transform="translate(549.32 239.65) rotate(70.23)">T</text><text class="cls-1" transform="translate(567.92 294.79) rotate(80.9)">I</text><text class="cls-1" transform="translate(573.8 320.33) rotate(91.32)">S</text><text class="cls-1" transform="translate(573.14 377.22) rotate(105.61)">T</text><text class="cls-1" transform="translate(556.23 433.03) rotate(115.89)"> </text><text class="cls-1" transform="matrix(-0.53, 0.85, -0.85, -0.53, 545.75, 454.9)"> </text><text class="cls-1" transform="translate(532.97 475.56) rotate(128.1)"> </text><text class="cls-1" transform="matrix(-0.7, 0.72, -0.72, -0.7, 518.08, 494.73)"> </text><text class="cls-1" transform="translate(501.24 512.23) rotate(140.25)"> </text><text class="cls-1" transform="translate(482.64 527.85) rotate(146.34)"> </text><text class="cls-1" transform="translate(462.51 541.39) rotate(152.45)"> </text><text class="cls-1" transform="translate(441.06 552.72) rotate(158.59)"> </text><text class="cls-1" transform="translate(418.5 561.69) rotate(164.75)"> </text><text class="cls-1" transform="matrix(-1, 0.05, -0.05, -1, 397.77, 571.04)">D</text><text class="cls-1" transform="translate(320.36 573.84) rotate(-166)">E</text><text class="cls-1" transform="matrix(-0.87, -0.49, 0.49, -0.87, 264.36, 561)">V</text><text class="cls-1" transform="translate(208.12 529.35) rotate(-135.44)">E</text><text class="cls-1" transform="translate(167.41 489.86) rotate(-121.61)">L</text><text class="cls-1" transform="translate(138.9 449.66) rotate(-105.93)">O</text><text class="cls-1" transform="translate(117.55 372.47) rotate(-88.4)">P</text><text class="cls-1" transform="matrix(0.28, -0.96, 0.96, 0.28, 118.91, 311.09)">E</text><text class="cls-1" transform="matrix(0.52, -0.85, 0.85, 0.52, 133.84, 256.62)">R</text><circle class="cls-2" cx="345.77" cy="345.77" r="345.27"/><circle class="cls-2" cx="345.77" cy="345.77" r="188.16"/></g></g></svg>