<svg id="Layer_1" data-name="Layer 1" xmlns="http://www.w3.org/2000/svg" viewBox="0 0 40 40">
  <defs>
    <style>
      .cls-1 {
        fill: #fff;
      }
    </style>
  </defs>
  <circle cx="20" cy="20" r="20"/>
  <path class="cls-1" d="M29.11855,30.21231a13.95876,13.95876,0,1,0-18.2371,0l-1.18416,1.974a1.15972,1.15972,0,0,0-.16634.59906v1.06319a.58159.58159,0,0,0,.84217.52l1.18184-.59091a1.16469,1.16469,0,0,0,.47693-.442l.96664-1.61107a13.83834,13.83834,0,0,0,14.00294,0l.96664,1.61223a1.16469,1.16469,0,0,0,.47693.442l1.18184.59092a.58161.58161,0,0,0,.84217-.52113V32.78537a1.1528,1.1528,0,0,0-.16634-.5979ZM20,31.29993a11.54382,11.54382,0,0,1-5.80567-1.568l1.20278-2.0054a9.17814,9.17814,0,0,0,9.21393.01395l1.19579,1.99261A11.56242,11.56242,0,0,1,20,31.29993Zm-1.42961-8.86147.78518.52345a1.15738,1.15738,0,0,0,1.29,0l.78518-.52345,1.98563,3.30938a6.89172,6.89172,0,0,1-6.82582-.01046Zm-.89685-5.09727a2.32646,2.32646,0,0,1,4.65173-.10516q.00117.052,0,.104a2.32646,2.32646,0,0,1-4.65175.00116ZM27.89948,28.18132l-1.226-2.04379a9.2651,9.2651,0,0,0,2.63238-6.46988,1.16323,1.16323,0,1,0-2.32645,0A6.948,6.948,0,0,1,25.423,24.053l-1.83209-3.05347.5444-.36293a1.16833,1.16833,0,0,0,.51763-.969V15.01474a1.16323,1.16323,0,0,0-1.16323-1.16323H22.32646V11.52505a1.16323,1.16323,0,0,0-1.16323-1.16322H18.83677a1.16323,1.16323,0,0,0-1.16323,1.16322v2.32646H16.51032a1.16323,1.16323,0,0,0-1.16323,1.16323v4.65291a1.16475,1.16475,0,0,0,.51763.96781l.5444.36292-4.30976,7.18294a11.63289,11.63289,0,1,1,15.80012,0Z" transform="translate(0 -0.07018)"/>
</svg>
