<svg id="Layer_1" data-name="Layer 1" xmlns="http://www.w3.org/2000/svg" viewBox="0 0 40 40">
  <defs>
    <style>
      .cls-1 {
        fill: #fff;
      }
    </style>
  </defs>
  <circle cx="20" cy="20" r="20"/>
  <path class="cls-1" d="M31.82,20.00008a5.78,5.78,0,0,0-5.88-5.67c-.29,0-.6.02-.9.05a7.73576,7.73576,0,0,0-5.13,3.57,7.8565,7.8565,0,0,0-5.14-3.57c-.3-.03-.6-.05-.9-.05a5.78,5.78,0,0,0-5.87,5.67,5.78,5.78,0,0,0,5.87,5.67,7.34426,7.34426,0,0,0,.92-.06,7.73946,7.73946,0,0,0,5.14-3.56,7.83158,7.83158,0,0,0,5.14,3.57c.31.03.6.05.91.05A5.78,5.78,0,0,0,31.82,20.00008Zm-17.34,3.6a3.335,3.335,0,0,1-.63.04,3.77,3.77,0,0,1-3.85-3.66,3.78,3.78,0,0,1,3.86-3.66c.2,0,.42.02.63.04,2.37.35,3.82,2.67,4.31,3.62-.5.95-1.95,3.3-4.31,3.62Zm6.52-3.6c.49-.93,1.94-3.27,4.31-3.62a3.23081,3.23081,0,0,1,.62-.04,3.76,3.76,0,0,1,3.86964,3.64707l.00036.01293a3.78,3.78,0,0,1-3.86,3.66c-.2,0-.42-.02-.62-.04-2.36-.35-3.82-2.69-4.31-3.62Zm-8.79.59h3.54v-1.16H12.22v1.16Zm14.13,0h1.19v-1.16h-1.2v-1.19H25.2v1.2H24v1.15h1.2v1.18h1.15v-1.17Zm5.66-5.53a.49906.49906,0,0,1-.53.51.51.51,0,0,1-.5297-.48951l-.0003-.01049a.53155.53155,0,0,1,.53-.52A.50473.50473,0,0,1,32,15.06008Zm-.91,0a.38884.38884,0,0,0,.4.4.40053.40053,0,0,0,0-.8A.36792.36792,0,0,0,31.09,15.06008Zm.3.26h-.1v-.52l.2-.01a.38858.38858,0,0,1,.18.03.11488.11488,0,0,1,.06.11c0,.06-.04.1-.11.11.05.02.07.06.09.13l.03.13h-.12c-.02-.02-.02-.07-.04-.13-.02-.05-.04-.07-.11-.07h-.05l-.02.22Zm.02-.3h.06c.07,0,.1-.01.1-.07,0-.05-.03-.07-.1-.07H31.4v.14Z" transform="translate(0 0)"/>
</svg>
