<svg id="Layer_1" data-name="Layer 1" xmlns="http://www.w3.org/2000/svg" viewBox="0 0 340 380">
  <defs>
    <style>
      .cls-1 {
        fill: #fff;
        stroke: #000;
        stroke-miterlimit: 10;
      }

      .cls-2 {
        fill-rule: evenodd;
      }
    </style>
  </defs>
  <polygon class="cls-1" points="15 6 326 6 297 334 169.512 371 34 331 15 6"/>
  <path class="cls-2" d="M390,400,250,440,110,400,80,60H420Q405,229.98047,390,400Zm8.16406-320H101.83594l26.875,304.53125L250,419.21875l121.28906-34.6875ZM168.00781,280h40l.97657,25L250,318.98438,291.01562,305l2.96876-45H206.01562l-2.03124-40h92.03124l2.96876-40H161.01562l-3.00781-40H341.01562l-5,80-7.03124,115L250,361.01562,171.01562,335Z" transform="translate(-80 -60)"/>
</svg>
