<?xml version="1.0" encoding="utf-8"?>
<!-- Generator: Adobe Illustrator 26.0.1, SVG Export Plug-In . SVG Version: 6.00 Build 0)  -->
<svg version="1.1" id="Layer_1" xmlns="http://www.w3.org/2000/svg" xmlns:xlink="http://www.w3.org/1999/xlink" x="0px" y="0px"
	 viewBox="0 0 340 380" style="enable-background:new 0 0 340 380;" xml:space="preserve">
<style type="text/css">
	.st0{fill:#00FF00;stroke:#000000;stroke-miterlimit:10;}
</style>
<polygon class="st0" points="17,8 328,13 303,325 177,372 41,331 "/>
<path d="M0,0l30,340l140,40l140-40c10-113.3,20-226.7,30-340H0z M21.8,20h296.3l-26.9,304.6L170,359.2L48.7,324.6L21.8,20z M95.5,80
	l-9.6,120h129.9l-4.1,50l-41.7,6.2l-41.2-6.2l-1.8-20H88.4l3.9,50l77.6,20l77.7-20l9.9-120H130.9l3.2-40h83.6l2.3,20h37l-7-60H95.5z
	"/>
</svg>
