<?xml version="1.0" encoding="utf-8"?>
<!-- Generator: Adobe Illustrator 26.0.1, SVG Export Plug-In . SVG Version: 6.00 Build 0)  -->
<svg version="1.1" id="Layer_1" xmlns="http://www.w3.org/2000/svg" xmlns:xlink="http://www.w3.org/1999/xlink" x="0px" y="0px"
	 viewBox="0 0 40 40" style="enable-background:new 0 0 40 40;" xml:space="preserve">
<style type="text/css">
	.st0{fill:#00FF00;}
</style>
<circle cx="20" cy="20" r="20"/>
<path class="st0" d="M31.8,20c-0.1-3.2-2.7-5.7-5.9-5.7c-0.3,0-0.6,0-0.9,0.1c-2.1,0.4-4,1.7-5.1,3.6c-1.1-1.9-3-3.1-5.1-3.6
	c-0.3,0-0.6-0.1-0.9-0.1C10.7,14.3,8.1,16.8,8,20c0.1,3.2,2.7,5.7,5.9,5.7c0.3,0,0.6,0,0.9-0.1c2.1-0.4,4-1.7,5.1-3.6
	c1.1,1.9,3,3.1,5.1,3.6c0.3,0,0.6,0,0.9,0C29.2,25.7,31.8,23.2,31.8,20z M14.5,23.6c-0.2,0-0.4,0-0.6,0c-2.1,0-3.8-1.6-3.8-3.7
	c0.1-2.1,1.8-3.7,3.9-3.7c0.2,0,0.4,0,0.6,0c2.4,0.4,3.8,2.7,4.3,3.6C18.3,20.9,16.8,23.3,14.5,23.6L14.5,23.6z M21,20
	c0.5-0.9,1.9-3.3,4.3-3.6c0.2,0,0.4,0,0.6,0c2.1-0.1,3.8,1.6,3.9,3.6c0,0,0,0,0,0l0,0c-0.1,2.1-1.8,3.7-3.9,3.7c-0.2,0-0.4,0-0.6,0
	C23,23.3,21.5,20.9,21,20L21,20z M12.2,20.6h3.5v-1.2h-3.5L12.2,20.6L12.2,20.6z M26.3,20.6h1.2v-1.2h-1.2v-1.2h-1.1v1.2H24v1.1h1.2
	v1.2h1.1L26.3,20.6L26.3,20.6z M32,15.1c0,0.3-0.2,0.5-0.5,0.5c0,0,0,0,0,0c-0.3,0-0.5-0.2-0.5-0.5v0l0,0c0-0.3,0.2-0.5,0.5-0.5
	C31.7,14.5,32,14.8,32,15.1C32,15,32,15,32,15.1z M31.1,15.1c0,0.2,0.2,0.4,0.4,0.4c0,0,0,0,0,0c0.2,0,0.4-0.2,0.4-0.4
	c0-0.2-0.2-0.4-0.4-0.4C31.3,14.6,31.1,14.8,31.1,15.1C31.1,15,31.1,15,31.1,15.1z M31.4,15.3h-0.1v-0.5l0.2,0c0.1,0,0.1,0,0.2,0
	c0,0,0.1,0.1,0.1,0.1c0,0.1,0,0.1-0.1,0.1c0,0,0.1,0.1,0.1,0.1l0,0.1h-0.1c0,0,0-0.1,0-0.1c0-0.1,0-0.1-0.1-0.1h0L31.4,15.3
	L31.4,15.3z M31.4,15L31.4,15c0.1,0,0.2,0,0.2-0.1c0-0.1,0-0.1-0.1-0.1h-0.1L31.4,15L31.4,15z"/>
</svg>
