<?xml version="1.0" encoding="utf-8"?>
<!-- Generator: Adobe Illustrator 26.0.1, SVG Export Plug-In . SVG Version: 6.00 Build 0)  -->
<svg version="1.1" id="Layer_1" xmlns="http://www.w3.org/2000/svg" xmlns:xlink="http://www.w3.org/1999/xlink" x="0px" y="0px"
	 viewBox="0 0 40 40" style="enable-background:new 0 0 40 40;" xml:space="preserve">
<style type="text/css">
	.st0{fill:#00FF00;}
</style>
<circle cx="20" cy="20" r="20"/>
<path class="st0" d="M29.1,30.1c5.8-5,6.5-13.9,1.5-19.7S16.7,4,10.9,9S4.4,22.9,9.4,28.7c0.4,0.5,0.9,1,1.5,1.5l-1.2,2
	c-0.1,0.2-0.2,0.4-0.2,0.6v1.1c0,0.3,0.3,0.6,0.6,0.6c0.1,0,0.2,0,0.3-0.1l1.2-0.6c0.2-0.1,0.4-0.3,0.5-0.4l1-1.6
	c4.3,2.5,9.7,2.5,14,0l1,1.6c0.1,0.2,0.3,0.3,0.5,0.4l1.2,0.6c0.3,0.1,0.6,0,0.8-0.3c0-0.1,0.1-0.2,0.1-0.3v-1.1
	c0-0.2-0.1-0.4-0.2-0.6L29.1,30.1z M20,31.2c-2,0-4-0.5-5.8-1.6l1.2-2c2.8,1.7,6.4,1.7,9.2,0l1.2,2C24,30.7,22,31.2,20,31.2z
	 M18.6,22.4l0.8,0.5c0.4,0.3,0.9,0.3,1.3,0l0.8-0.5l2,3.3c-2.1,1.2-4.7,1.2-6.8,0L18.6,22.4z M17.7,17.3c0-1.3,1-2.3,2.3-2.4
	c1.3,0,2.3,1,2.4,2.3c0,0,0,0.1,0,0.1c0,1.3-1.1,2.3-2.4,2.3C18.7,19.5,17.7,18.5,17.7,17.3L17.7,17.3z M27.9,28.1l-1.2-2
	c1.7-1.7,2.6-4.1,2.6-6.5c0-0.6-0.5-1.2-1.2-1.2c-0.6,0-1.2,0.5-1.2,1.2c0,0,0,0,0,0c0,1.6-0.5,3.1-1.6,4.4l-1.8-3.1l0.5-0.4
	c0.3-0.2,0.5-0.6,0.5-1v-4.7c0-0.6-0.5-1.2-1.2-1.2c0,0,0,0,0,0h-1.2v-2.3c0-0.6-0.5-1.2-1.2-1.2h-2.3c-0.6,0-1.2,0.5-1.2,1.2v2.3
	h-1.2c-0.6,0-1.2,0.5-1.2,1.2l0,0v4.7c0,0.4,0.2,0.8,0.5,1l0.5,0.4l-4.3,7.2c-4.7-4.4-5-11.7-0.6-16.4s11.7-5,16.4-0.6
	s5,11.7,0.6,16.4C28.3,27.7,28.1,27.9,27.9,28.1z"/>
</svg>
