<?xml version="1.0" encoding="utf-8"?>
<!-- Generator: Adobe Illustrator 26.0.1, SVG Export Plug-In . SVG Version: 6.00 Build 0)  -->
<svg version="1.1" id="Layer_1" xmlns="http://www.w3.org/2000/svg" xmlns:xlink="http://www.w3.org/1999/xlink" x="0px" y="0px"
	 viewBox="0 0 40 40" style="enable-background:new 0 0 40 40;" xml:space="preserve">
<style type="text/css">
	.st0{fill:#00FF00;}
</style>
<circle cx="20" cy="20" r="20"/>
<path class="st0" d="M26.7,26V14.1l-7.9,6 M7.2,16.5c-0.4-0.4-0.4-1.1,0-1.5l1.6-1.5c0.4-0.3,1-0.3,1.4,0l4.5,3.4l10.4-9.5
	c0.5-0.5,1.4-0.6,2-0.2l5.3,2.5c0.6,0.3,0.9,0.9,0.9,1.5V29c0,0.5-0.3,1-0.8,1.3l-5.8,2.8c-0.5,0.1-1.1,0-1.5-0.3l-10.5-9.6
	l-4.5,3.4c-0.4,0.3-1,0.3-1.4,0l-1.6-1.4c-0.4-0.5-0.4-1.2,0.1-1.6l3.9-3.6"/>
</svg>
