<?xml version="1.0" encoding="utf-8"?>
<!-- Generator: Adobe Illustrator 26.0.1, SVG Export Plug-In . SVG Version: 6.00 Build 0)  -->
<svg version="1.1" id="Layer_1" xmlns="http://www.w3.org/2000/svg" xmlns:xlink="http://www.w3.org/1999/xlink" x="0px" y="0px"
	 viewBox="0 0 40 40" style="enable-background:new 0 0 40 40;" xml:space="preserve">
<style type="text/css">
	.st0{fill:#00FF00;}
</style>
<circle cx="20" cy="20" r="20"/>
<path class="st0" d="M21.6,2.8c1.7,4-6.2,6.5-7,9.8c-0.7,3.1,4.7,6.6,4.7,6.6c-0.9-1.4-1.6-2.8-2.2-4.3C15.8,11.7,25.6,8.7,21.6,2.8
	z M26.9,8.4c0,0-7,0.4-7.3,4.9c-0.2,2,1.8,3,1.9,4.5c-0.1,0.9-0.5,1.6-1.2,2.2c1.3-0.3,2.4-1.1,2.9-2.2c0.8-2-1.5-3.4-1.3-5
	C22.2,11.3,26.9,8.4,26.9,8.4z M15.9,18.7c0,0-6.4-0.1-6.4,1.7c0,1.9,8.4,2,14.3,0.9c0,0,1.6-1.1,2-1.5C22,20.6,13.1,20.7,13.1,20
	C13.1,19.4,15.9,18.7,15.9,18.7z M28.2,18.7c-0.7,0.1-1.4,0.3-1.9,0.7c1.1-0.4,2.2,0.2,2.6,1.3c0,0.1,0.1,0.2,0.1,0.3
	c0,2.3-3.3,4.4-3.3,4.4s5.1-0.6,5.1-4.3c0.1-1.2-0.8-2.3-2.1-2.4C28.6,18.7,28.4,18.7,28.2,18.7z M14.4,22.2c-1,0-2.4,0.8-2.4,1.5
	c0,1.5,7.4,2.6,12.8,0.5L22.9,23C19.2,24.2,12.4,23.8,14.4,22.2z M15.3,25.5c-1.3,0-2.2,0.8-2.2,1.4c0,1.9,8,2.1,11.2,0.2l-2-1.3
	C19.9,26.8,13.9,27,15.3,25.5z M10.8,27.2c-2.2,0-3.6,0.9-3.6,1.8c0,4.3,22.4,4.1,22.4-0.3c0-0.7-0.9-1.1-1.2-1.3
	c1.8,4.2-18.4,3.9-18.4,1.4c0-0.6,1.5-1.1,2.9-0.8l-1.2-0.7C11.5,27.3,11.2,27.2,10.8,27.2L10.8,27.2z M32,30.2
	c-3.4,3.2-12,4.4-20.7,2.4C20,36.1,32,34.1,32,30.2L32,30.2z"/>
</svg>
