<?xml version="1.0" encoding="utf-8"?>
<!-- Generator: Adobe Illustrator 26.0.1, SVG Export Plug-In . SVG Version: 6.00 Build 0)  -->
<svg version="1.1" id="Layer_1" xmlns="http://www.w3.org/2000/svg" xmlns:xlink="http://www.w3.org/1999/xlink" x="0px" y="0px"
	 viewBox="0 0 340 380" style="enable-background:new 0 0 340 380;" xml:space="preserve">
<style type="text/css">
	.st0{fill:#00FF00;stroke:#000000;stroke-miterlimit:10;}
	.st1{fill-rule:evenodd;clip-rule:evenodd;}
</style>
<polygon class="st0" points="15,6 326,6 297,334 169.5,371 34,331 "/>
<path class="st1" d="M310,340l-140,40L30,340L0,0h340C330,113.3,320,226.7,310,340z M318.2,20H21.8l26.9,304.5L170,359.2l121.3-34.7
	L318.2,20z M88,220h40l1,25l41,14l41-14l3-45h-88l-2-40h92l3-40H81l-3-40h183l-5,80l-7,115l-79,26l-79-26L88,220z"/>
</svg>
