<?xml version="1.0" encoding="utf-8"?>
<!-- Generator: Adobe Illustrator 26.0.1, SVG Export Plug-In . SVG Version: 6.00 Build 0)  -->
<svg version="1.1" id="Layer_1" xmlns="http://www.w3.org/2000/svg" xmlns:xlink="http://www.w3.org/1999/xlink" x="0px" y="0px"
	 viewBox="0 0 420 420" style="enable-background:new 0 0 420 420;" xml:space="preserve">
<style type="text/css">
	.st0{fill:#00FF00;stroke:#000000;stroke-miterlimit:10;}
</style>
<rect x="14" y="8" class="st0" width="396.7" height="405.5"/>
<path d="M26.7,0C12,0.1,0.1,12,0,26.7v366.6C0.1,408,12,419.9,26.7,420h366.6c14.7-0.1,26.6-12,26.7-26.7V26.7
	C419.9,12,408,0.1,393.3,0H26.7z M26.7,20h366.6c3.7,0,6.7,3,6.7,6.6c0,0,0,0,0,0.1v366.6c0,3.7-3,6.7-6.6,6.7c0,0,0,0-0.1,0H26.7
	c-3.7,0-6.7-3-6.7-6.6c0,0,0,0,0-0.1V26.7C20,23,23,20,26.7,20C26.6,20,26.7,20,26.7,20z M190,190v125.7c0,19.3-7.3,24.3-20,24.3
	c-13.3,0-22.5-8.3-28.6-19L110,340c9.1,19.3,31.4,40,62.3,40c34.2,0,57.7-18.2,57.7-58.2V190H190z M314.5,190
	c-34.1,0-55.9,21.8-55.9,50.4c0,31.1,18.3,45.7,45.9,57.5l9.5,4.1c17.4,7.6,26,12.3,26,25.4c0,10.9-8.3,18.8-24.1,18.8
	c-18.8,0-27.7-12.8-35.9-26.1l-30,20c11.2,22.1,31.3,40,66.8,40c36.2,0,63.2-18.8,63.2-53.2c0-31.9-18.3-46.1-50.7-60l-9.5-4.1
	c-16.4-7.1-23.5-11.7-23.5-23.2c0-9.3,7.1-16.4,18.3-16.4c11,0,18,4.6,24.5,16.4l29.7-19.1C356.2,198.4,338.8,190,314.5,190z"/>
</svg>
