<svg id="Layer_1" data-name="Layer 1" xmlns="http://www.w3.org/2000/svg" viewBox="0 0 340 380">
  <defs>
    <style>
      .cls-1 {
        fill: #fff;
        stroke: #000;
        stroke-miterlimit: 10;
      }
    </style>
  </defs>
  <polygon class="cls-1" points="17 8 328 13 303 325 177 372 41 331 17 8"/>
  <path d="M90,70l30,340,140,40,140-40q15-169.995,30-340Zm21.83594,20H408.16406l-26.875,304.55078L260,429.19922,138.71094,394.55078Zm73.67187,60-9.60937,120H305.80078l-4.10156,50L260,326.19141,218.80859,320l-1.8164-20H178.39844l3.90625,50,77.59765,20,77.69532-20L347.5,230H220.89844l3.20312-40h83.59375L310,210h36.99219L340,150Z" transform="translate(-90 -70)"/>
</svg>
