<svg id="Layer_1" data-name="Layer 1" xmlns="http://www.w3.org/2000/svg" viewBox="0 0 40 40">
  <defs>
    <style>
      .cls-1 {
        fill: #fff;
      }
    </style>
  </defs>
  <circle cx="20" cy="20" r="20"/>
  <path class="cls-1" d="M21.62813,2.98282c1.73641,4.01793-6.22546,6.49923-6.96541,9.84628-.67828,3.07573,4.73076,6.64969,4.73569,6.64969A23.93969,23.93969,0,0,1,17.149,15.17721C15.75538,11.8277,25.63619,8.79637,21.62813,2.98282Zm5.28818,5.56443s-6.98514.4489-7.34031,4.91327c-.15786,1.988,1.83754,3.0338,1.89427,4.47917a3.176,3.176,0,0,1-1.18392,2.17052,4.21212,4.21212,0,0,0,2.94007-2.22972c.77695-2.00033-1.51443-3.352-1.28258-4.95273C22.16582,11.39606,26.91631,8.54725,26.91631,8.54725ZM15.9453,18.8671s-6.39317-.09126-6.39317,1.71668c0,1.88934,8.36884,2.02993,14.34518.86821,0,0,1.58843-1.09266,2.01266-1.49963-3.9168.79914-12.84554.88794-12.84554.19732C13.06443,19.51332,15.9453,18.8671,15.9453,18.8671Zm12.29305,0a3.84836,3.84836,0,0,0-1.914.73008,2.0444,2.0444,0,0,1,2.66382,1.59829c0,2.28892-3.315,4.43971-3.315,4.43971s5.13033-.5821,5.13033-4.341A2.256,2.256,0,0,0,28.23835,18.8671ZM14.40621,22.3794c-.98167,0-2.44677.76954-2.44677,1.49963,0,1.46757,7.37977,2.59723,12.84554.45384l-1.89427-1.16419C19.206,24.35506,12.38367,23.96782,14.40621,22.3794Zm.90767,3.29524c-1.34424,0-2.22972.81148-2.22972,1.42071,0,1.88441,8.02847,2.07433,11.20779.15785l-2.01267-1.28258C19.904,26.97449,13.9425,27.12741,15.31388,25.67464Zm-4.47917,1.697c-2.19025-.0444-3.611.93973-3.611,1.75615,0,4.341,22.41558,4.14125,22.41558-.296,0-.73749-.851-1.09513-1.16419-1.26285,1.83261,4.24238-18.35078,3.90447-18.35078,1.401,0-.56976,1.48483-1.11486,2.86114-.84848l-1.16419-.67089A7.7982,7.7982,0,0,0,10.83471,27.3716Zm21.17246,2.92034c-3.40871,3.23111-12.0464,4.4027-20.73835,2.4073C19.9583,36.25594,31.96524,34.26054,32.00717,30.29194Z" transform="translate(0 -0.14036)"/>
</svg>
