<svg id="Layer_1" data-name="Layer 1" xmlns="http://www.w3.org/2000/svg" viewBox="0 0 420 420">
  <defs>
    <style>
      .cls-1 {
        fill: #fff;
        stroke: #000;
        stroke-miterlimit: 10;
      }
    </style>
  </defs>
  <rect class="cls-1" x="14" y="8" width="396.69031" height="405.48867"/>
  <path d="M66.67969,40A26.84191,26.84191,0,0,0,40,66.67969V433.32031A26.84191,26.84191,0,0,0,66.67969,460H433.32031A26.81643,26.81643,0,0,0,460,433.32031V66.67969A26.81643,26.81643,0,0,0,433.32031,40Zm0,20H433.32031A6.65191,6.65191,0,0,1,440,66.67969V433.32031A6.65191,6.65191,0,0,1,433.32031,440H66.67969A6.65191,6.65191,0,0,1,60,433.32031V66.67969A6.65191,6.65191,0,0,1,66.67969,60ZM230,230V355.74219C230,375.03906,222.69531,380,210,380c-13.28125,0-22.5-8.28125-28.59375-19.02344L150,380c9.10156,19.25781,31.40625,40,62.34375,40C246.5625,420,270,401.79688,270,361.83594V230Zm124.53125,0c-34.0625,0-55.89844,21.79688-55.89844,50.42969,0,31.05469,18.32031,45.74219,45.85938,57.46093l9.53125,4.10157C371.40625,349.60938,380,354.25781,380,367.34375c0,10.89844-8.28125,18.78906-24.10156,18.78906C337.07031,386.13281,328.16406,373.35938,320,360l-30,20c11.21094,22.14844,31.32812,40,66.75781,40C393.00781,420,420,401.17188,420,366.83594c0-31.875-18.28125-46.05469-50.74219-59.96094l-9.53125-4.0625C343.35938,295.70312,336.25,291.09375,336.25,279.64844c0-9.25782,7.10938-16.36719,18.28125-16.36719,10.97656,0,18.00781,4.64844,24.53125,16.36719l29.72656-19.0625C396.25,238.4375,378.78906,230,354.53125,230Z" transform="translate(-40 -40)"/>
</svg>
