<?xml version="1.0" encoding="utf-8"?>
<!-- Generator: Adobe Illustrator 26.0.1, SVG Export Plug-In . SVG Version: 6.00 Build 0)  -->
<svg version="1.1" id="Layer_1" xmlns="http://www.w3.org/2000/svg" xmlns:xlink="http://www.w3.org/1999/xlink" x="0px" y="0px"
	 viewBox="0 0 40 40" style="enable-background:new 0 0 40 40;" xml:space="preserve">
<style type="text/css">
	.st0{fill:#FFFFFF;}
	.st1{fill:none;stroke:#000000;}
</style>
<circle cx="20" cy="20.1" r="20"/>
<path class="st0" d="M20,6.9L20,6.9c3.6,0,6.6,1.5,6.6,3.3V30c0,1.8-3,3.3-6.6,3.3l0,0c-3.6,0-6.6-1.5-6.6-3.3V10.2
	C13.4,8.4,16.4,6.9,20,6.9z"/>
<path class="st0" d="M10.1,13.5h19.8c1.8,0,3.3,3,3.3,6.6l0,0c0,3.6-1.5,6.6-3.3,6.6H10.1c-1.8,0-3.3-3-3.3-6.6l0,0
	C6.8,16.5,8.3,13.5,10.1,13.5z"/>
<circle cx="16.4" cy="10.2" r="1.2"/>
<circle cx="23.6" cy="30" r="1.2"/>
<line class="st1" x1="13.4" y1="13.2" x2="20" y2="13.2"/>
<line class="st1" x1="20" y1="27.1" x2="26.6" y2="27.1"/>
<path class="st1" d="M13.1,26.7c0-6.6,1.6-6.6,6.6-6.6c5.6,0,7.3,0,7.3-6.6"/>
</svg>
