<?xml version="1.0" encoding="utf-8"?>
<!-- Generator: Adobe Illustrator 26.0.1, SVG Export Plug-In . SVG Version: 6.00 Build 0)  -->
<svg version="1.1" id="Layer_1" xmlns="http://www.w3.org/2000/svg" xmlns:xlink="http://www.w3.org/1999/xlink" x="0px" y="0px"
	 viewBox="0 0 407 512" style="enable-background:new 0 0 407 512;" xml:space="preserve">
<style type="text/css">
	.st0{fill:#FFFFFF;}
</style>
<circle cx="203.5" cy="256" r="205.5"/>
<path class="st0" d="M297.5,242.9l-2.1-3.6c0.1-25.9-11.9-36.4-25.9-44.5c4.2-1.1,8.6-2,9.8-7.4c7.3-1.8,8.8-5.2,9.5-8.8
	c1.9-1.3,8.3-4.9,7.6-11c3.6-2.5,5.6-5.6,4.5-10.1c3.8-4.2,4.9-7.6,3.2-10.8c4.6-5.7,2.6-8.7,0.6-11.7c3.5-6.2,0.4-12.9-9.3-11.8
	c-3.8-5.6-12.2-4.4-13.5-4.4c-1.5-1.8-3.3-3.3-9.2-2.6c-3.8-3.4-8-2.8-12.4-1.2c-5.2-4.1-8.6-0.8-12.6,0.4c-6.3-2-7.8,0.7-10.8,1.9
	c-6.9-1.5-9,1.7-12.3,5l-3.8-0.1c-10.4,6-15.5,18.3-17.3,24.6c-1.8-6.3-7-18.6-17.3-24.6l-3.8,0.1c-3.3-3.3-5.4-6.4-12.3-5
	c-3.1-1.1-4.5-3.9-10.8-1.9c-2.6-0.8-5-2.5-7.8-2.4c-1.5,0.1-3.1,0.6-4.9,2c-4.4-1.7-8.6-2.2-12.4,1.2c-5.9-0.7-7.8,0.8-9.2,2.6
	c-1.3,0-9.6-1.3-13.5,4.4c-9.6-1.1-12.7,5.6-9.2,11.8c-2,3-4,6,0.6,11.7c-1.6,3.2-0.6,6.6,3.2,10.8c-1,4.5,1,7.6,4.5,10.1
	c-0.7,6.1,5.7,9.7,7.6,11c0.7,3.6,2.2,6.9,9.5,8.8c1.2,5.3,5.6,6.2,9.8,7.4c-14,8-26,18.6-25.9,44.5l-2.1,3.6
	c-16.1,9.6-30.5,40.5-7.9,65.6c1.5,7.9,4,13.5,6.1,19.7c3.3,25.2,24.8,37,30.5,38.4c8.3,6.2,17.2,12.2,29.1,16.3
	c11.3,11.5,23.6,15.8,35.9,15.8h0.6c12.3,0,24.5-4.4,35.8-15.8c12-4.1,20.8-10,29.1-16.3c5.7-1.4,27.2-13.2,30.5-38.4
	c2.2-6.2,4.7-11.9,6.1-19.7C327.9,283.4,313.5,252.5,297.5,242.9L297.5,242.9z M285.1,238.5c-0.8,10.4-55.2-36.3-45.8-37.9
	C264.8,196.4,285.9,211.3,285.1,238.5z M261.1,290.4c-13.7,8.8-33.4,3.1-44-12.7c-10.6-15.8-8.1-35.8,5.5-44.6s33.4-3.1,44,12.7
	S274.8,281.6,261.1,290.4L261.1,290.4z M223.3,129.6c0.4,2.3,1,3.8,1.6,4.2c3-3.2,5.5-6.5,9.4-9.6c0,1.8-0.9,3.8,1.4,5.2
	c2.1-2.8,4.9-5.3,8.6-7.4c-1.8,3.1-0.3,4.1,0.7,5.4c2.8-2.5,5.6-4.9,10.8-6.9c-1.5,1.7-3.5,3.5-1.3,5.5c3-1.8,5.9-3.7,12.9-5
	c-1.6,1.7-4.9,3.5-2.8,5.2c3.7-1.4,7.8-2.5,12.3-3c-2.2,1.8-4,3.5-2.2,4.9c4-1.2,9.4-2.8,14.7-1.5l-3.3,3.4
	c-0.4,0.4,7.9,0.3,13.3,0.4c-2,2.8-4,5.4-5.2,10.2c0.6,0.6,3.2,0.2,5.8,0c-2.6,5.5-7.1,6.9-8.2,9.3c1.6,1.2,3.8,0.9,6.2,0.1
	c-1.9,3.8-5.8,6.5-8.9,9.6c0.8,0.6,2.2,0.9,5.4,0.5c-2.9,3.1-6.4,5.9-10.5,8.4c0.7,0.8,3.2,0.8,5.6,0.9c-3.7,3.6-8.5,5.5-13.1,7.9
	c2.2,1.5,3.8,1.2,5.6,1.2c-3.2,2.6-8.6,4-13.6,5.6c0.9,1.5,1.9,1.9,4,2.3c-5.3,3-12.9,1.6-15.1,3.1c0.5,1.5,2,2.5,3.7,3.2
	c-8.6,0.5-32-0.3-36.5-18c8.8-9.6,24.8-20.9,52.3-34.9c-21.4,7.1-40.7,16.7-56.9,29.8C200.9,160.8,214,138.5,223.3,129.6
	L223.3,129.6z M204.1,193.5c13.5-0.2,30.2,9.9,30.1,19.4c-0.1,8.4-11.7,15.1-30,15c-17.9-0.2-30-8.5-29.9-16.6
	C174.3,204.6,188.9,193.1,204.1,193.5L204.1,193.5z M135.5,186.4c2.1-0.4,3-0.8,4-2.3c-5-1.6-10.4-3-13.6-5.6c1.7,0,3.3,0.4,5.6-1.2
	c-4.5-2.4-9.3-4.3-13.1-7.9c2.3-0.1,4.9,0,5.6-0.9c-4.1-2.5-7.6-5.3-10.5-8.4c3.2,0.4,4.6,0.1,5.4-0.5c-3.1-3.1-7.1-5.8-8.9-9.6
	c2.4,0.8,4.6,1.1,6.2-0.1c-1.1-2.3-5.6-3.7-8.2-9.3c2.6,0.2,5.2,0.6,5.8,0c-1.2-4.7-3.2-7.4-5.2-10.2c5.5-0.1,13.7,0,13.3-0.4
	l-3.3-3.4c5.3-1.4,10.8,0.2,14.7,1.5c1.8-1.4-0.1-3.1-2.2-4.9c4.5,0.6,8.6,1.6,12.3,3c2-1.7-1.3-3.5-2.8-5.2c7,1.3,9.9,3.1,12.9,5
	c2.1-2,0.1-3.7-1.3-5.5c5.2,1.9,8,4.4,10.8,6.9c0.9-1.3,2.5-2.2,0.7-5.4c3.7,2.1,6.6,4.6,8.6,7.4c2.3-1.5,1.4-3.5,1.4-5.2
	c3.9,3.1,6.4,6.4,9.4,9.6c0.6-0.4,1.1-1.9,1.6-4.2c9.3,8.9,22.4,31.2,3.3,40c-16.2-13.1-35.5-22.7-56.9-29.8
	c27.5,13.9,43.5,25.3,52.3,34.9c-4.5,17.7-27.9,18.5-36.5,18c1.7-0.8,3.2-1.8,3.7-3.2C148.4,187.9,140.8,189.3,135.5,186.4
	L135.5,186.4z M169,199.8c9.4,1.6-45,48.2-45.8,37.9C122.4,210.5,143.5,195.6,169,199.8L169,199.8z M111.3,304
	c-13.2-10.5-17.5-41.1,7-54.8C133.1,245.3,123.4,309.3,111.3,304z M162.1,358.8c-7.4,4.4-25.5,2.6-38.4-15.6
	c-8.6-15.3-7.5-30.8-1.5-35.4c9.1-5.5,23.1,1.9,34,14.3C165.6,333.3,169.9,353,162.1,358.8z M147.3,292
	c-13.7-8.8-16.1-28.8-5.5-44.6c10.6-15.8,30.3-21.5,44-12.7c13.7,8.8,16.1,28.8,5.5,44.6C180.6,295.1,160.9,300.8,147.3,292z
	 M204.3,389.9c-16.4,0.7-32.5-13.2-32.2-18c-0.2-7.1,20-12.6,33.1-12.3c13.2-0.6,31,4.2,31.1,10.5
	C236.5,376.3,220.2,390.2,204.3,389.9L204.3,389.9z M237.2,320.2c0.1,16.6-14.6,30-32.8,30.1c-18.2,0.1-33-13.3-33.1-29.8v-0.3
	c-0.1-16.6,14.6-30,32.8-30.1c18.2-0.1,33,13.3,33.1,29.8V320.2z M283,344.1c-14.1,19.3-33.2,20-40.3,14.7
	c-7.4-6.9-1.8-28.4,8.4-40.2c11.7-13,24.2-21.5,32.9-14.8C289.8,309.5,293.3,331.1,283,344.1L283,344.1z M295.8,303.2
	c-12,5.2-21.8-58.7-7-54.8C313.3,262.2,309,292.8,295.8,303.2z"/>
</svg>
