<svg id="Layer_1" data-name="Layer 1" xmlns="http://www.w3.org/2000/svg" viewBox="0 0 40 40">
  <defs>
    <style>
      .cls-1 {
        fill: #fff;
      }
    </style>
  </defs>
  <circle cx="20" cy="20" r="20"/>
  <path class="cls-1" d="M26.65334,26.10425v-11.94l-7.88986,5.97M7.218,16.53122a1.12816,1.12816,0,0,1-.0263-1.51223l1.578-1.45962a1.195,1.195,0,0,1,1.38073,0l4.49722,3.43209L25.07537,7.45787a1.62215,1.62215,0,0,1,1.97247-.1578l5.25991,2.51161a1.65862,1.65862,0,0,1,.92048,1.51222V29.0761a1.64569,1.64569,0,0,1-.789,1.315l-5.78591,2.76145a1.71651,1.71651,0,0,1-1.48592-.263L14.6213,23.2902l-4.47092,3.41894a1.17046,1.17046,0,0,1-1.38073,0l-1.578-1.44647a1.13351,1.13351,0,0,1,.06575-1.578l3.94493-3.55044" transform="translate(0 -0.07018)"/>
</svg>
