<svg xmlns="http://www.w3.org/2000/svg" viewBox="0 0 213 840.72"><g id="Layer_2" data-name="Layer 2"><g id="Layer_1-2" data-name="Layer 1"><path d="M163,30a20.27,20.27,0,0,1,20,20V396.31L157.37,498.84Q139.69,569.58,122,640.34l-3,12.07,6.41,10.66a29.8,29.8,0,0,1,3.32,23.06L102,788.3a30,30,0,0,1-36.63,21.43l-12.91-3.38A30,30,0,0,1,31,769.73L57.74,667.56A29.81,29.81,0,0,1,72,649l11.23-6.33,3.12-12.51q27.87-111.45,55.73-222.91l.9-3.58V50a20.27,20.27,0,0,1,20-20m0-30a50.24,50.24,0,0,0-50,50V400Q85.15,511.45,57.27,622.9A59.83,59.83,0,0,0,28.72,660L2,762.13a60,60,0,0,0,42.85,73.24l12.92,3.38A59.94,59.94,0,0,0,131,795.9l26.75-102.17a59.83,59.83,0,0,0-6.63-46.12Q182,523.8,213,400V50A50.24,50.24,0,0,0,163,0Z"/></g></g></svg>