<svg xmlns="http://www.w3.org/2000/svg" viewBox="0 0 213 840.72"><g id="Layer_2" data-name="Layer 2"><g id="Layer_1-2" data-name="Layer 1"><path d="M163,18a32.23,32.23,0,0,1,32,32V397.78l-26,104-35.37,141.5-1.81,7.24,3.84,6.4a41.63,41.63,0,0,1,4.65,32.28L113.57,791.34A42,42,0,0,1,73,822.72a42.58,42.58,0,0,1-10.68-1.38L49.38,818a42.06,42.06,0,0,1-30-51.27L46.13,664.52a41.71,41.71,0,0,1,20-25.95l6.74-3.8,1.87-7.5q27.87-111.45,55.73-222.91l.54-2.14V50a32.23,32.23,0,0,1,32-32m0-18a50.24,50.24,0,0,0-50,50V400Q85.15,511.45,57.27,622.9A59.83,59.83,0,0,0,28.72,660L2,762.13a60,60,0,0,0,42.85,73.24l12.92,3.38A59.94,59.94,0,0,0,131,795.9l26.75-102.17a59.83,59.83,0,0,0-6.63-46.12Q182,523.8,213,400V50A50.24,50.24,0,0,0,163,0Z"/></g></g></svg>